<?xml version="1.0" encoding="UTF-8"?>
<!DOCTYPE svg PUBLIC "-//W3C//DTD SVG 1.1//EN" "http://www.w3.org/Graphics/SVG/1.1/DTD/svg11.dtd">
<svg version="1.2" width="56.02mm" height="27.02mm" viewBox="0 0 5602 2702" preserveAspectRatio="xMidYMid" fill-rule="evenodd" stroke-width="28.222" stroke-linejoin="round" xmlns="http://www.w3.org/2000/svg" xml:space="preserve">
<g>
	<path fill="rgb(255,255,255)" stroke="none" d="M 1601,2701 C 1601,2701 1,1851 1,1401 1,951 1601,1 1601,1 L 5601,1 5601,2701 1601,2701 Z"/>
	<path fill="none" stroke="rgb(17,17,17)" d="M 1601,2701 C 1601,2701 1,1851 1,1401 1,951 1601,1 1601,1 L 5601,1 5601,2701 1601,2701 Z"/>
	<path fill="rgb(17,17,17)" stroke="none" d="M 4201,801 L 4576,801 4702,1401 4576,2002 4201,2002 4326,1401 4201,801 Z M 4201,801 L 4201,801 Z M 4702,2002 L 4702,2002 Z M 3101,801 L 2726,801 2600,1401 2726,2002 3101,2002 2976,1401 3101,801 Z M 3101,801 L 3101,801 Z M 2600,2002 L 2600,2002 Z"/>
</g>
</svg>
